<svg width="209" height="30" viewBox="0 0 209 30" fill="none" xmlns="http://www.w3.org/2000/svg"><path d="M11.6831 2.34058C16.3617 2.34058 19.9317 4.13015 22.3928 7.70954L19.4722 10.5165C18.4444 8.97072 17.281 7.84553 15.9829 7.14053C14.7118 6.43553 13.1973 6.08294 11.4394 6.08294C9.5734 6.08294 8.16752 6.4489 7.22102 7.18104C6.27452 7.91319 5.80142 8.84847 5.80142 9.98737C5.80142 10.8822 6.11238 11.6281 6.73435 12.2247C7.35632 12.8212 8.42448 13.2956 9.939 13.6481L15.3744 14.8684C17.8895 15.4378 19.7015 16.2921 20.8103 17.431C21.9462 18.5699 22.5146 20.0611 22.5146 21.905C22.5146 23.532 22.0682 24.9556 21.1758 26.1759C20.3103 27.3961 19.0661 28.3454 17.4435 29.0233C15.8479 29.6741 13.9957 29.9999 11.8863 29.9999C9.18186 29.9999 6.81536 29.4982 4.78708 28.4948C2.75879 27.4644 1.16292 26.095 0 24.3866L3.00202 21.3765C3.86739 22.8679 5.07103 24.0608 6.61253 24.9556C8.15403 25.8234 9.95214 26.2575 12.0075 26.2575C13.9005 26.2575 15.361 25.9324 16.3887 25.2816C17.4434 24.6036 17.9846 23.641 18.0115 22.3936C18.0115 21.5531 17.7274 20.8479 17.1594 20.2784C16.5915 19.6818 15.6314 19.2343 14.2792 18.936L8.39699 17.5937C3.63731 16.5632 1.25797 14.2177 1.25797 10.557C1.25797 9.03848 1.67696 7.65566 2.51535 6.40826C3.35364 5.16086 4.55729 4.17083 6.12586 3.43868C7.72142 2.70653 9.57364 2.34058 11.6831 2.34058Z" fill="#E75147" /><path d="M35.0493 30C32.8857 30 31.1143 29.4033 29.7351 28.2102C28.3559 26.9899 27.666 25.1462 27.666 22.6786V9.25586H32.0068V21.5799C32.0068 23.3424 32.3718 24.5901 33.102 25.3222C33.8591 26.0544 34.9814 26.4203 36.4689 26.4203C37.9563 26.4203 39.214 25.9052 40.2416 24.8748C41.2692 23.8444 41.783 22.3123 41.783 20.2786V9.25586H46.1238V29.5931H42.3107L42.1075 26.2982C40.7823 28.7658 38.4297 30 35.0493 30Z" fill="#E75147" /><path d="M70.4229 26.6643C70.9097 26.6643 71.3833 26.5961 71.8431 26.4606L71.5995 29.4707C70.8963 29.769 70.1123 29.9181 69.2469 29.9181C68.1382 29.891 67.1915 29.6334 66.4071 29.1454C65.6229 28.6573 65.1091 27.9387 64.8657 26.9897C64.2167 27.9659 63.2972 28.7112 62.1073 29.2264C60.9444 29.7416 59.7141 29.9998 58.416 29.9998C56.4148 29.9998 54.7922 29.5248 53.5481 28.5757C52.3311 27.5995 51.7227 26.2302 51.7227 24.4675C51.7227 22.9762 52.2091 21.7425 53.1827 20.7663C54.1833 19.7901 55.5898 19.1124 57.4017 18.7327L64.6221 17.3087V16.5359C64.6221 15.2073 64.2438 14.1636 63.4865 13.4043C62.7563 12.645 61.7422 12.2651 60.4441 12.2651C57.8209 12.2651 56.1442 13.4719 55.414 15.8853L51.7631 14.3397C52.2768 12.6314 53.291 11.2888 54.8055 10.3126C56.347 9.33637 58.2806 8.84863 60.6063 8.84863C63.1214 8.84863 65.1364 9.47212 66.6508 10.7195C68.1653 11.9398 68.9225 13.7293 68.9225 16.0885V25.1593C68.9225 26.1625 69.4224 26.6643 70.4229 26.6643ZM59.3079 26.6232C60.8224 26.6232 62.08 26.2439 63.0807 25.4846C64.1083 24.7253 64.6221 23.5867 64.6221 22.0682V20.3593L59.5112 21.4169C58.3213 21.661 57.4559 21.9867 56.915 22.3935C56.3741 22.8002 56.1033 23.3829 56.1033 24.1422C56.1033 24.9015 56.3875 25.5116 56.9554 25.9726C57.5504 26.4065 58.3344 26.6232 59.3079 26.6232Z" fill="#E75147" /><path d="M76.0195 9.25558H79.7114L80.1167 12.9163C81.2526 10.2046 83.3756 8.84863 86.4856 8.84863C87.4322 8.84863 88.1761 8.98438 88.7169 9.25558L88.1084 13.079C87.4323 12.8349 86.6071 12.7125 85.6335 12.7125C84.741 12.7125 83.8896 12.9433 83.0783 13.4043C82.267 13.8652 81.6044 14.5564 81.0906 15.4784C80.6039 16.4004 80.3603 17.5122 80.3603 18.8138V29.5928H76.0195V9.25558Z" fill="#E75147" /><path d="M109.892 26.6643C110.379 26.6643 110.852 26.5961 111.312 26.4606L111.069 29.4707C110.366 29.769 109.581 29.9181 108.716 29.9181C107.607 29.891 106.661 29.6334 105.876 29.1454C105.092 28.6573 104.578 27.9387 104.334 26.9897C103.685 27.9659 102.766 28.7112 101.576 29.2264C100.413 29.7416 99.1829 29.9998 97.8848 29.9998C95.8834 29.9998 94.2608 29.5248 93.0169 28.5757C91.7999 27.5995 91.1914 26.2302 91.1914 24.4675C91.1914 22.9762 91.6784 21.7425 92.652 20.7663C93.6526 19.7901 95.0584 19.1124 96.8704 18.7327L104.091 17.3087V16.5359C104.091 15.2073 103.713 14.1636 102.955 13.4043C102.225 12.645 101.211 12.2651 99.9128 12.2651C97.2896 12.2651 95.6129 13.4719 94.8827 15.8853L91.2318 14.3397C91.7457 12.6314 92.7598 11.2888 94.2742 10.3126C95.8157 9.33637 97.7492 8.84863 100.075 8.84863C102.59 8.84863 104.605 9.47212 106.12 10.7195C107.634 11.9398 108.391 13.7293 108.391 16.0885V25.1593C108.391 26.1625 108.892 26.6643 109.892 26.6643ZM98.7773 26.6232C100.292 26.6232 101.549 26.2439 102.55 25.4846C103.578 24.7253 104.091 23.5867 104.091 22.0682V20.3593L98.9799 21.4169C97.7899 21.661 96.9246 21.9867 96.3837 22.3935C95.8429 22.8002 95.5726 23.3829 95.5726 24.1422C95.5726 24.9015 95.8562 25.5116 96.4241 25.9726C97.019 26.4065 97.8036 26.6232 98.7773 26.6232Z" fill="#E75147" /><path d="M124.781 16.6579L120.44 21.3357V29.5926H116.1V2.74719H120.44V16.1294L132.731 2.74719H138.046L127.904 13.7294L138.289 29.5926H133.178L124.781 16.6579Z" fill="#E75147" /><path d="M159.627 26.6643C160.113 26.6643 160.587 26.5961 161.046 26.4606L160.803 29.4707C160.1 29.769 159.315 29.9181 158.45 29.9181C157.341 29.891 156.395 29.6334 155.611 29.1454C154.827 28.6573 154.313 27.9387 154.069 26.9897C153.42 27.9659 152.5 28.7112 151.31 29.2264C150.148 29.7416 148.917 29.9998 147.619 29.9998C145.618 29.9998 143.995 29.5248 142.751 28.5757C141.534 27.5995 140.926 26.2302 140.926 24.4675C140.926 22.9762 141.413 21.7425 142.386 20.7663C143.387 19.7901 144.793 19.1124 146.605 18.7327L153.826 17.3087V16.5359C153.826 15.2073 153.447 14.1636 152.69 13.4043C151.959 12.645 150.945 12.2651 149.647 12.2651C147.024 12.2651 145.347 13.4719 144.617 15.8853L140.966 14.3397C141.48 12.6314 142.494 11.2888 144.009 10.3126C145.55 9.33637 147.484 8.84863 149.81 8.84863C152.325 8.84863 154.339 9.47212 155.854 10.7195C157.368 11.9398 158.126 13.7293 158.126 16.0885V25.1593C158.126 26.1625 158.626 26.6643 159.627 26.6643ZM148.512 26.6232C150.026 26.6232 151.284 26.2439 152.284 25.4846C153.312 24.7253 153.826 23.5867 153.826 22.0682V20.3593L148.714 21.4169C147.524 21.661 146.659 21.9867 146.118 22.3935C145.577 22.8002 145.307 23.3829 145.307 24.1422C145.307 24.9015 145.591 25.5116 146.159 25.9726C146.754 26.4065 147.538 26.6232 148.512 26.6232Z" fill="#E75147" /><path d="M165.225 9.25558H169.078L169.281 12.672C169.957 11.3976 170.877 10.4483 172.04 9.82459C173.203 9.17379 174.474 8.84863 175.853 8.84863C177.367 8.84863 178.719 9.18775 179.909 9.8657C181.126 10.5437 182.046 11.5331 182.668 12.8347C183.263 11.5601 184.209 10.5841 185.507 9.90622C186.832 9.20112 188.226 8.84863 189.686 8.84863C191.038 8.84863 192.282 9.133 193.418 9.70245C194.553 10.2448 195.46 11.0857 196.136 12.2246C196.812 13.3635 197.15 14.7598 197.15 16.4138V29.5928H192.809V17.1056C192.809 15.5056 192.431 14.3262 191.674 13.567C190.916 12.8077 189.902 12.4277 188.631 12.4277C187.144 12.4277 185.886 12.9702 184.858 14.0549C183.858 15.1395 183.357 16.6308 183.357 18.529V29.5928H179.017V17.1056C179.017 15.5056 178.638 14.3262 177.881 13.567C177.124 12.8077 176.11 12.4277 174.839 12.4277C173.973 12.4277 173.135 12.6585 172.324 13.1195C171.512 13.5534 170.849 14.2445 170.336 15.1936C169.822 16.1427 169.565 17.3361 169.565 18.7733V29.5928H165.225V9.25558Z" fill="#E75147" /><path d="M208.063 29.5931H203.723V9.25586H208.063V29.5931Z" fill="#E75147" /><path d="M205.902 6.21437C207.613 6.21437 209.001 4.82321 209.001 3.10713C209.001 1.39104 207.613 -0.00012207 205.902 -0.00012207C204.19 -0.00012207 202.803 1.39104 202.803 3.10713C202.803 4.82321 204.19 6.21437 205.902 6.21437Z" fill="#05537A" /><path d="M205.901 5.19368C207.05 5.19368 207.982 4.25948 207.982 3.10716C207.982 1.95484 207.05 1.02063 205.901 1.02063C204.752 1.02063 203.82 1.95484 203.82 3.10716C203.82 4.25948 204.752 5.19368 205.901 5.19368Z" fill="#4896BD" /></svg>
