<svg xmlns="http://www.w3.org/2000/svg" version="1.1" xmlns:xlink="http://www.w3.org/1999/xlink" xmlns:svgjs="http://svgjs.com/svgjs" width="600" height="600"><svg xmlns="http://www.w3.org/2000/svg" xml:space="preserve" viewBox="-100 -50 600 600"><g style="fill:#e75147;fill-opacity:1"><path d="M0 0c1.181.529 1.864.822 2.535 1.14 5.737 2.708 11.463 5.441 17.21 8.127 8.797 4.11 16.039 10.095 21.612 18.037 5.561 7.924 9.424 16.682 9.529 26.395.299 27.885.14 55.775.162 83.663v2.029c-.829.095-1.341-.289-1.879-.543-5.184-2.439-10.35-4.917-15.547-7.329-8.018-3.721-14.813-9.006-20.225-15.983-6.555-8.452-10.948-17.955-11.141-28.723-.373-20.771-.208-41.551-.267-62.327C1.967 16.442 2.444 8.364 0 0m-111.16 63.241c-7.257-3.431-14.058-6.587-20.807-9.854-7.174-3.472-13.337-8.287-18.3-14.533-7.713-9.708-12.011-20.647-11.972-33.208.073-23.237.02-46.475.022-69.713 0-1.642-.054-3.272-.343-4.899-.48-2.697-.88-5.408-1.362-8.41 6.657 3.148 12.991 6.169 19.346 9.145 9.055 4.24 16.46 10.441 22.091 18.695 5.13 7.519 8.511 15.785 9.012 24.914.418 7.632.224 15.299.242 22.95.027 12.645-.021 25.289.017 37.933.026 8.86-.607 17.768 2.054 26.98m81.842 38.587c-5.352-2.524-10.42-5.023-15.578-7.323-7.872-3.508-15.159-7.841-20.975-14.322-9.042-10.076-14.185-21.72-14.195-35.433-.016-23.504-.06-47.009-.118-70.513-.003-1.495-.153-3-.362-4.483-.387-2.749-.868-5.485-1.348-8.466 6.503 3.073 12.765 6.082 19.07 8.999 8.018 3.71 14.831 8.958 20.278 15.902 6.65 8.479 10.969 18.051 11.28 28.879.409 14.202.173 28.421.197 42.632.016 9.977-.001 19.953.007 29.93.001 1.843.039 3.681.363 5.512.495 2.797.896 5.61 1.381 8.686m195.601 144.35c.036-.886.105-1.771.105-2.657.005-62.835-.051-125.671.063-188.507.018-9.631.378-19.266.219-28.901-.263-15.851-1.198-31.663-2.726-47.445-2.271-23.479-5.915-46.727-11.585-69.632-6.206-25.067-14.589-49.329-27.29-71.932-14.924-26.559-34.796-48.919-58.363-68.062-20.844-16.931-43.492-30.916-68.347-41.222-10.436-4.327-21.354-6.654-32.558-7.645-37.51-3.32-71.689 7.123-103.984 25.298-5.944 3.345-11.544 7.297-17.869 9.974-11.978 5.072-24.515 6.908-37.428 6.584-21.665-.545-42.154-6.278-62.124-14.218a265.34 265.34 0 0 1-37.797-18.614c-5.478-3.263-11.219-3.363-16.77-.207-5.549 3.155-8.321 8.117-8.407 14.513-.05 3.76.068 7.522-.022 11.281-.431 17.962 3.317 35.182 9.775 51.786 15.651 40.241 43.618 68.735 82.737 86.82 17.48 8.081 27.374 22.454 30.518 41.437.166 1.003.116 2.046.116 3.07.006 22.701.089 45.402-.025 68.101-.079 15.887 4.357 30.456 12.449 43.958 9.764 16.292 23.838 27.563 40.974 35.562 45.625 21.298 91.114 42.888 136.656 64.363 18.142 8.555 36.276 17.128 54.441 25.636 1.473.69 2.104 1.443 2.057 3.161-.119 4.438.013 8.882.046 13.324l33.06 15.503c.025-.819.07-1.637.07-2.456-.017-50.594-.044-101.189-.041-151.783 0-2.199-.128-4.384-.476-6.534-5.051-31.099-21.519-53.995-49.977-67.57C-19.977-46.48-73.928-71.717-127.796-97.125c-28.633-13.506-57.208-27.136-85.909-40.494-29.92-13.928-51.287-35.917-63.666-66.543-3.096-7.659-5.277-15.594-6.677-23.973.818.334 1.435.561 2.032.834 10.18 4.665 20.577 8.784 31.251 12.169 24.355 7.724 49.132 12.23 74.82 9.549 14.553-1.519 28.418-5.395 41.28-12.442 8.435-4.623 16.49-9.923 25.212-14.044 22.386-10.577 45.672-16.859 70.684-14.944 7.999.614 15.854 2.033 23.316 5.087C-3.42-237 8.027-230.924 19.04-224.031c25.321 15.846 47.555 35.097 65.338 59.266 14.462 19.657 24.046 41.645 31.053 64.854 7.601 25.179 12.098 50.963 14.86 77.083 1.883 17.809 2.869 35.666 3.166 53.567.129 7.724-.25 15.441-.26 23.157-.069 57.979-.037 115.959-.04 173.938 0 .888-.037 1.775-.056 2.663l.179.366c3.342 1.535 6.69 3.056 10.024 4.606 7.663 3.562 15.32 7.138 22.979 10.709" style="fill:#e75147;fill-opacity:1;fill-rule:nonzero;stroke:none" transform="matrix(.7925 0 0 -.7925 252.515 289.019)"></path></g><g style="fill:#05537a;fill-opacity:1"><path d="m0 0-33.061-15.503c-.032.818-.091 1.636-.092 2.454-.005 21.331-.088 42.661.02 63.991.105 20.478 7.437 38.266 20.693 53.692 8.605 10.014 19.39 16.97 31.298 22.525 20.384 9.507 40.6 19.373 60.888 29.083.72.345 1.463.64 2.163.945.438-.53.285-1.022.286-1.475.05-38.413.092-76.825.133-115.238.001-.612.074-1.236-.249-1.803-7.659-3.57-15.316-7.147-22.979-10.709-3.334-1.549-6.682-3.071-10.025-4.606-.053.883-.15 1.766-.15 2.649-.008 25.427-.017 50.854.016 76.281.003 1.654-.129 2.187-1.939 1.286-5.863-2.918-11.886-5.52-17.727-8.482C10.4 85.515.563 70.117.104 48.919-.084 40.174.062 31.421.077 22.672.09 15.224.132 7.775.161.327A1.602 1.602 0 0 0 0 0" style="fill:#05537a;fill-opacity:1;fill-rule:nonzero;stroke:none" transform="matrix(.7925 0 0 -.7925 319.247 124.57)"></path></g><path d="M0 0c.066.103.12.212.161.328.448.153.914.266 1.34.466 9.562 4.498 19.112 9.019 28.679 13.507 6.227 2.921 12.477 5.794 18.716 8.689.02-.887.057-1.775.057-2.663.003-57.979-.029-115.958.04-173.937.01-7.717.389-15.434.26-23.158-.297-17.901-1.283-35.757-3.166-53.567-2.762-26.12-7.259-51.904-14.86-77.083-7.007-23.209-16.591-45.197-31.053-64.853-17.783-24.169-40.017-43.42-65.338-59.267-11.013-6.893-22.46-12.969-34.493-17.895-7.462-3.054-15.317-4.473-23.316-5.087-25.012-1.915-48.298 4.367-70.684 14.944-8.722 4.121-16.777 9.421-25.212 14.044-12.862 7.048-26.727 10.924-41.28 12.442-25.688 2.681-50.465-1.825-74.82-9.549-10.674-3.384-21.071-7.504-31.251-12.169-.597-.273-1.215-.5-2.032-.834 1.399 8.379 3.581 16.314 6.677 23.973 12.379 30.626 33.746 52.615 63.666 66.543 28.701 13.358 57.276 26.988 85.909 40.494 53.868 25.408 107.819 50.645 161.576 76.289 28.458 13.575 44.926 36.471 49.977 67.57.348 2.15.476 4.336.476 6.534C.026-103.645.053-53.05.07-2.456.07-1.637.024-.819 0 0" style="fill:#fff;fill-opacity:1;fill-rule:nonzero;stroke:none" transform="matrix(.7925 0 0 -.7925 319.247 124.57)"></path><path d="M0 0c-.484-3.076-.886-5.889-1.381-8.687-.324-1.83-.361-3.668-.363-5.511-.008-9.977.01-19.953-.007-29.93-.023-14.211.212-28.431-.196-42.632-.312-10.828-4.63-20.4-11.281-28.879-5.447-6.944-12.259-12.192-20.278-15.902-6.305-2.917-12.566-5.926-19.07-8.999.48 2.98.961 5.717 1.348 8.466.209 1.483.359 2.988.363 4.483.057 23.504.101 47.009.117 70.513.01 13.713 5.154 25.357 14.195 35.432 5.817 6.482 13.104 10.814 20.976 14.323C-10.42-5.023-5.352-2.524 0 0" style="fill:#fffdff;fill-opacity:1;fill-rule:nonzero;stroke:none" transform="matrix(.7925 0 0 -.7925 229.28 208.32)"></path><path d="M0 0c-2.661-9.212-2.028-18.12-2.055-26.98-.037-12.644.011-25.288-.017-37.933-.017-7.651.177-15.318-.241-22.95-.501-9.129-3.882-17.394-9.012-24.914-5.632-8.254-13.037-14.455-22.092-18.695-6.354-2.976-12.688-5.996-19.345-9.145.481 3.002.882 5.713 1.362 8.41.289 1.627.343 3.257.343 4.899-.002 23.238.051 46.476-.022 69.714-.04 12.56 4.258 23.5 11.972 33.208 4.963 6.245 11.126 11.06 18.3 14.532C-14.059-6.587-7.257-3.431 0 0" style="fill:#fffdff;fill-opacity:1;fill-rule:nonzero;stroke:none" transform="matrix(.7925 0 0 -.7925 164.422 238.901)"></path><path d="M0 0c2.444 8.364 1.967 16.442 1.989 24.486.059 20.776-.106 41.556.267 62.327.193 10.768 4.586 20.271 11.141 28.723 5.412 6.977 12.207 12.262 20.225 15.983 5.197 2.412 10.363 4.89 15.547 7.329.538.254 1.05.638 1.879.543v-2.029c-.022-27.888.137-55.778-.162-83.663-.105-9.713-3.968-18.471-9.529-26.395-5.573-7.942-12.815-13.927-21.612-18.037C13.998 6.581 8.272 3.848 2.535 1.14 1.864.822 1.181.529 0 0" style="fill:#fffdff;fill-opacity:1;fill-rule:nonzero;stroke:none" transform="matrix(.7925 0 0 -.7925 252.515 289.019)"></path><path d="M11211.055 8772.84c-3.88 1.8-7.767 3.588-11.641 5.404-5.949 2.791-11.889 5.603-17.836 8.4-.264.125-.554.195-.833.29-.02-4.631-.04-9.264-.05-13.896 0-5.442-.1-10.885.02-16.324.285-13.183 6.403-22.76 18.142-28.715 3.633-1.842 7.378-3.46 11.024-5.275 1.126-.56 1.209-.229 1.207.8-.02 15.813-.02 31.627-.01 47.44 0 .55.06 1.1.09 1.648-.04.076-.07.152-.111.228" style="fill:#4896bd;fill-opacity:1;fill-rule:nonzero;stroke:none;stroke-width:.621927" transform="translate(-13927.786 -11072.516) scale(1.27426)"></path><path d="M0 0c-.484-3.076-.886-5.889-1.381-8.687-.324-1.83-.361-3.668-.363-5.511-.008-9.977.01-19.953-.007-29.93-.023-14.211.212-28.431-.196-42.632-.312-10.828-4.63-20.4-11.281-28.879-5.447-6.944-12.259-12.192-20.278-15.902-6.305-2.917-12.566-5.926-19.07-8.999.48 2.98.961 5.717 1.348 8.466.209 1.483.359 2.988.363 4.483.057 23.504.101 47.009.117 70.513.01 13.713 5.154 25.357 14.195 35.432 5.817 6.482 13.104 10.814 20.976 14.323C-10.42-5.023-5.352-2.524 0 0" style="fill:#fffdff;fill-opacity:1;fill-rule:nonzero;stroke:none" transform="matrix(.7925 0 0 -.7925 229.28 208.32)"></path><path d="M0 0c-2.661-9.212-2.028-18.12-2.055-26.98-.037-12.644.011-25.288-.017-37.933-.017-7.651.177-15.318-.241-22.95-.501-9.129-3.882-17.394-9.012-24.914-5.632-8.254-13.037-14.455-22.092-18.695-6.354-2.976-12.688-5.996-19.345-9.145.481 3.002.882 5.713 1.362 8.41.289 1.627.343 3.257.343 4.899-.002 23.238.051 46.476-.022 69.714-.04 12.56 4.258 23.5 11.972 33.208 4.963 6.245 11.126 11.06 18.3 14.532C-14.059-6.587-7.257-3.431 0 0" style="fill:#fffdff;fill-opacity:1;fill-rule:nonzero;stroke:none" transform="matrix(.7925 0 0 -.7925 164.422 238.901)"></path><path d="M0 0c2.444 8.364 1.967 16.442 1.989 24.486.059 20.776-.106 41.556.267 62.327.193 10.768 4.586 20.271 11.141 28.723 5.412 6.977 12.207 12.262 20.225 15.983 5.197 2.412 10.363 4.89 15.547 7.329.538.254 1.05.638 1.879.543v-2.029c-.022-27.888.137-55.778-.162-83.663-.105-9.713-3.968-18.471-9.529-26.395-5.573-7.942-12.815-13.927-21.612-18.037C13.998 6.581 8.272 3.848 2.535 1.14 1.864.822 1.181.529 0 0" style="fill:#fffdff;fill-opacity:1;fill-rule:nonzero;stroke:none" transform="matrix(.7925 0 0 -.7925 252.515 289.019)"></path></svg><style>@media (prefers-color-scheme: light) { :root { filter: none; } }</style></svg>
